<?xml version="1.0" encoding="UTF-8"?>
<svg width="103px" height="24px" viewBox="0 0 103 24" version="1.1" xmlns="http://www.w3.org/2000/svg" xmlns:xlink="http://www.w3.org/1999/xlink">
    <!-- Generator: Sketch 63.1 (92452) - https://sketch.com -->
    <title>slektor-mark</title>
    <desc>Created with Sketch.</desc>
    <g id="Page-1" stroke="none" stroke-width="1" fill="none" fill-rule="evenodd">
        <g id="Artboard" transform="translate(-57.000000, -110.000000)" fill="#FFFFFF" fill-rule="nonzero">
            <g id="slektor-mark" transform="translate(57.870000, 109.574000)">
                <path d="M7.29,23.816 C8.17,23.816 9.035,23.731 9.885,23.561 C10.735,23.391 11.49,23.096 12.15,22.676 C12.81,22.256 13.345,21.701 13.755,21.011 C14.165,20.321 14.37,19.466 14.37,18.446 C14.37,17.726 14.23,17.121 13.95,16.631 C13.67,16.141 13.3,15.731 12.84,15.401 C12.38,15.071 11.855,14.806 11.265,14.606 C10.675,14.406 10.07,14.236 9.45,14.096 C8.85,13.956 8.26,13.826 7.68,13.706 C7.1,13.586 6.585,13.451 6.135,13.301 C5.685,13.151 5.32,12.956 5.04,12.716 C4.76,12.476 4.62,12.166 4.62,11.786 C4.62,11.466 4.7,11.211 4.86,11.021 C5.02,10.831 5.215,10.686 5.445,10.586 C5.675,10.486 5.93,10.421 6.21,10.391 C6.49,10.361 6.75,10.346 6.99,10.346 C7.75,10.346 8.41,10.491 8.97,10.781 C9.53,11.071 9.84,11.626 9.9,12.446 L13.95,12.446 C13.87,11.486 13.625,10.691 13.215,10.061 C12.805,9.431 12.29,8.926 11.67,8.546 C11.05,8.166 10.345,7.896 9.555,7.736 C8.765,7.576 7.95,7.496 7.11,7.496 C6.27,7.496 5.45,7.571 4.65,7.721 C3.85,7.871 3.13,8.131 2.49,8.501 C1.85,8.871 1.335,9.376 0.945,10.016 C0.555,10.656 0.36,11.476 0.36,12.476 C0.36,13.156 0.5,13.731 0.78,14.201 C1.06,14.671 1.43,15.061 1.89,15.371 C2.35,15.681 2.875,15.931 3.465,16.121 C4.055,16.311 4.66,16.476 5.28,16.616 C6.8,16.936 7.985,17.256 8.835,17.576 C9.685,17.896 10.11,18.376 10.11,19.016 C10.11,19.396 10.02,19.711 9.84,19.961 C9.66,20.211 9.435,20.411 9.165,20.561 C8.895,20.711 8.595,20.821 8.265,20.891 C7.935,20.961 7.62,20.996 7.32,20.996 C6.9,20.996 6.495,20.946 6.105,20.846 C5.715,20.746 5.37,20.591 5.07,20.381 C4.77,20.171 4.525,19.901 4.335,19.571 C4.145,19.241 4.05,18.846 4.05,18.386 L0,18.386 C0.04,19.426 0.275,20.291 0.705,20.981 C1.135,21.671 1.685,22.226 2.355,22.646 C3.025,23.066 3.79,23.366 4.65,23.546 C5.51,23.726 6.39,23.816 7.29,23.816 Z M20.205,23.426 L20.205,2.006 L15.945,2.006 L15.945,23.426 L20.205,23.426 Z M29.7,23.816 C31.46,23.816 32.96,23.416 34.2,22.616 C35.44,21.816 36.36,20.486 36.96,18.626 L33.21,18.626 C33.07,19.106 32.69,19.561 32.07,19.991 C31.45,20.421 30.71,20.636 29.85,20.636 C28.65,20.636 27.73,20.326 27.09,19.706 C26.45,19.086 26.1,18.086 26.04,16.706 L37.23,16.706 C37.31,15.506 37.21,14.356 36.93,13.256 C36.65,12.156 36.195,11.176 35.565,10.316 C34.935,9.456 34.13,8.771 33.15,8.261 C32.17,7.751 31.02,7.496 29.7,7.496 C28.52,7.496 27.445,7.706 26.475,8.126 C25.505,8.546 24.67,9.121 23.97,9.851 C23.27,10.581 22.73,11.446 22.35,12.446 C21.97,13.446 21.78,14.526 21.78,15.686 C21.78,16.886 21.965,17.986 22.335,18.986 C22.705,19.986 23.23,20.846 23.91,21.566 C24.59,22.286 25.42,22.841 26.4,23.231 C27.38,23.621 28.48,23.816 29.7,23.816 Z M32.97,14.006 L26.04,14.006 C26.06,13.706 26.125,13.366 26.235,12.986 C26.345,12.606 26.535,12.246 26.805,11.906 C27.075,11.566 27.435,11.281 27.885,11.051 C28.335,10.821 28.9,10.706 29.58,10.706 C30.62,10.706 31.395,10.986 31.905,11.546 C32.415,12.106 32.77,12.926 32.97,14.006 Z M43.365,23.426 L43.365,18.086 L45.015,16.496 L49.275,23.426 L54.435,23.426 L47.925,13.616 L53.775,7.916 L48.735,7.916 L43.365,13.496 L43.365,2.006 L39.105,2.006 L39.105,23.426 L43.365,23.426 Z M61.34,23.576 C61.76,23.576 62.19,23.566 62.63,23.546 C63.07,23.526 63.47,23.486 63.83,23.426 L63.83,20.126 C63.63,20.166 63.42,20.196 63.2,20.216 C62.98,20.236 62.75,20.246 62.51,20.246 C61.79,20.246 61.31,20.126 61.07,19.886 C60.83,19.646 60.71,19.166 60.71,18.446 L60.71,10.766 L63.83,10.766 L63.83,7.916 L60.71,7.916 L60.71,3.266 L56.45,3.266 L56.45,7.916 L53.87,7.916 L53.87,10.766 L56.45,10.766 L56.45,19.916 C56.45,20.696 56.58,21.326 56.84,21.806 C57.1,22.286 57.455,22.656 57.905,22.916 C58.355,23.176 58.875,23.351 59.465,23.441 C60.055,23.531 60.68,23.576 61.34,23.576 Z M72.365,23.816 C73.585,23.816 74.69,23.626 75.68,23.246 C76.67,22.866 77.515,22.321 78.215,21.611 C78.915,20.901 79.455,20.046 79.835,19.046 C80.215,18.046 80.405,16.926 80.405,15.686 C80.405,14.446 80.215,13.321 79.835,12.311 C79.455,11.301 78.915,10.441 78.215,9.731 C77.515,9.021 76.67,8.471 75.68,8.081 C74.69,7.691 73.585,7.496 72.365,7.496 C71.145,7.496 70.045,7.691 69.065,8.081 C68.085,8.471 67.245,9.021 66.545,9.731 C65.845,10.441 65.305,11.301 64.925,12.311 C64.545,13.321 64.355,14.446 64.355,15.686 C64.355,16.926 64.545,18.046 64.925,19.046 C65.305,20.046 65.845,20.901 66.545,21.611 C67.245,22.321 68.085,22.866 69.065,23.246 C70.045,23.626 71.145,23.816 72.365,23.816 Z M72.365,20.636 C71.645,20.636 71.045,20.496 70.565,20.216 C70.085,19.936 69.7,19.561 69.41,19.091 C69.12,18.621 68.915,18.091 68.795,17.501 C68.675,16.911 68.615,16.306 68.615,15.686 C68.615,15.066 68.675,14.456 68.795,13.856 C68.915,13.256 69.12,12.726 69.41,12.266 C69.7,11.806 70.085,11.431 70.565,11.141 C71.045,10.851 71.645,10.706 72.365,10.706 C73.085,10.706 73.69,10.851 74.18,11.141 C74.67,11.431 75.06,11.806 75.35,12.266 C75.64,12.726 75.845,13.256 75.965,13.856 C76.085,14.456 76.145,15.066 76.145,15.686 C76.145,16.306 76.085,16.911 75.965,17.501 C75.845,18.091 75.64,18.621 75.35,19.091 C75.06,19.561 74.67,19.936 74.18,20.216 C73.69,20.496 73.085,20.636 72.365,20.636 Z M86.39,23.426 L86.39,16.436 C86.39,15.736 86.46,15.086 86.6,14.486 C86.74,13.886 86.975,13.361 87.305,12.911 C87.635,12.461 88.07,12.106 88.61,11.846 C89.15,11.586 89.81,11.456 90.59,11.456 C90.85,11.456 91.12,11.471 91.4,11.501 C91.68,11.531 91.92,11.566 92.12,11.606 L92.12,7.646 C91.78,7.546 91.47,7.496 91.19,7.496 C90.65,7.496 90.13,7.576 89.63,7.736 C89.13,7.896 88.66,8.121 88.22,8.411 C87.78,8.701 87.39,9.051 87.05,9.461 C86.71,9.871 86.44,10.316 86.24,10.796 L86.18,10.796 L86.18,7.916 L82.13,7.916 L82.13,23.426 L86.39,23.426 Z"></path>
                <path d="M97.8805519,5.426 L97.8805519,1.25124272 L97.9026269,1.25124272 L99.3926932,5.426 L99.8673068,5.426 L101.357373,1.25124272 L101.379448,1.25124272 L101.379448,5.426 L102.13,5.426 L102.13,0.426 L100.982097,0.426 L99.6465563,4.22454369 L98.2889404,0.426 L97.13,0.426 L97.13,5.426 L97.8805519,5.426 Z M95.5471779,5.426 L95.5471779,1.09347573 L97.13,1.09347573 L97.13,0.426 L93.13,0.426 L93.13,1.09347573 L94.7128221,1.09347573 L94.7128221,5.426 L95.5471779,5.426 Z" id="™"></path>
            </g>
        </g>
    </g>
</svg>