<?xml version="1.0" encoding="UTF-8"?>
<svg width="322px" height="99px" viewBox="0 0 322 99" version="1.1" xmlns="http://www.w3.org/2000/svg" xmlns:xlink="http://www.w3.org/1999/xlink">
    <!-- Generator: Sketch 63.1 (92452) - https://sketch.com -->
    <title>slektor-mark</title>
    <desc>Created with Sketch.</desc>
    <defs>
        <circle id="path-1" cx="44" cy="44" r="44"></circle>
        <circle id="path-3" cx="44" cy="44" r="39"></circle>
    </defs>
    <g id="slektor-mark" stroke="none" stroke-width="1" fill="none" fill-rule="evenodd">
        <g id="icon" transform="translate(1.000000, 5.000000)">
            <g id="Slektor-App-Logo" transform="translate(0.000000, 5.000000)">
                <mask id="mask-2" fill="white">
                    <use xlink:href="#path-1"></use>
                </mask>
                <use id="Oval" fill="#000000" fill-rule="nonzero" xlink:href="#path-1"></use>
                <mask id="mask-4" fill="white">
                    <use xlink:href="#path-3"></use>
                </mask>
                <use id="Oval-Copy" fill="#FFFFFF" fill-rule="nonzero" xlink:href="#path-3"></use>
                <path d="M12.4579662,87.5435038 C12.4579662,87.5435038 12,30.3742344 12,29.5380492 C12.2289831,27.4852654 25.6524817,19.8074335 28.3980982,19.047331 C31.1437147,18.286504 87.7207155,26.8874727 90.7978123,31.2278099 C94.2456437,36.089857 92.6144116,88 92.6144116,88 L12.4579662,87.5435038 Z" id="Path" fill="#000000" fill-rule="nonzero" mask="url(#mask-4)"></path>
                <path d="M77.3580807,88.3928007 C77.3580807,88.3928007 78.1296287,49.8765674 75.3877999,45.9545356 C72.0792974,42.057107 22.1815006,35.3013711 20.2758787,32.3410331 C18.3702568,29.3799715 26.8413018,25.8248161 30.2159162,24.1192388 C32.5247482,22.9520364 80.7850034,30.6173653 85.6889102,35.6023979 C89.0199343,38.9882257 87.7376535,86.4961871 87.8429967,88.3928007 C87.9192797,89.7589992 77.3580807,88.3928007 77.3580807,88.3928007 Z" id="Shape" fill="#FFFFFF" fill-rule="nonzero" mask="url(#mask-4)"></path>
                <path d="M77.0863425,88 C77.0863425,88 77.7014163,49.5530754 75.079026,45.5151812 C74.016895,43.8787257 83.9846428,33.6405559 85.5737684,35.1516874 C89.0525249,38.4579216 87.7683456,88 87.7683456,88 C87.7683456,88 77.0863425,88 77.0863425,88 Z" id="Shape" fill="#CECECE" fill-rule="nonzero" mask="url(#mask-4)"></path>
            </g>
            <g id="Group" transform="translate(26.000000, 0.000000)" fill-rule="nonzero">
                <path d="M5.67624874,36.1051668 C5.67624874,36.1051668 4.40927235,1.08820514 5.34372249,0.173625903 C6.27817264,-0.740953337 7.65232084,2.21903603 14.4525927,2.9741207 C25.2556585,4.17464066 34.0731095,1.60261106 36,4.91751178 C36,4.91751178 35.3848631,41.3146044 35.5015777,42 L5.67624874,36.1051668 Z" id="Path" fill="#00DB7E"></path>
                <path d="M2.47926192,35.1233846 C2.47926192,35.1233846 1.46058483,3.08686136 2.39351716,2.17343872 C3.32644948,1.26001608 4.69836567,4.21554464 11.4883248,4.97039194 C22.2731104,6.16867616 31.0762393,3.59989921 33,6.91060782 C33,6.91060782 32.3045147,40.3147536 32.4210396,41 L2.47926192,35.1233846 Z" id="Path" fill="#FFFFFF"></path>
                <path d="M1.21451912,35.1245746 C1.21451912,35.1245746 -0.676377173,5.10622648 0.260606472,4.17652896 C1.19759012,3.24683144 2.57546394,6.25502003 9.39417289,7.0233168 C20.2265282,8.24295141 29.0678853,5.62840537 31,8.99810242 C31,8.99810242 30.5480692,40.3032746 30.6651001,41 L1.21451912,35.1245746 Z" id="Path" fill="#00DB7E"></path>
            </g>
        </g>
        <path d="M118.489036,78 C120.600195,78 122.675369,77.7973407 124.714557,77.392022 C126.753745,76.9867033 128.565024,76.2833563 130.148393,75.2819807 C131.731763,74.2806052 133.015252,72.957359 133.99886,71.3122421 C134.982469,69.6671252 135.474273,67.6286107 135.474273,65.1966988 C135.474273,63.480055 135.138406,62.0375974 134.466674,60.869326 C133.794941,59.7010546 132.907295,58.7235213 131.803734,57.9367263 C130.700174,57.1499312 129.440675,56.518111 128.025239,56.0412655 C126.609802,55.56442 125.15838,55.1591013 123.670973,54.8253095 C122.231546,54.4915177 120.816109,54.1815681 119.424663,53.8954608 C118.033218,53.6093535 116.79771,53.2874828 115.718139,52.9298487 C114.638569,52.5722146 113.762918,52.1072902 113.091185,51.5350757 C112.419453,50.9628611 112.083587,50.2237506 112.083587,49.3177442 C112.083587,48.5547914 112.27551,47.9468134 112.659357,47.4938102 C113.043205,47.040807 113.511018,46.695094 114.062799,46.4566713 C114.614579,46.2182485 115.226335,46.0632737 115.898068,45.9917469 C116.5698,45.9202201 117.193552,45.8844567 117.769323,45.8844567 C119.592597,45.8844567 121.175966,46.2301696 122.519431,46.9215956 C123.862896,47.6130215 124.6066,48.9362678 124.750543,50.8913343 L134.466674,50.8913343 C134.27475,48.6024759 133.686984,46.7070151 132.703376,45.2049519 C131.719768,43.7028886 130.48426,42.4988537 128.996852,41.5928473 C127.509444,40.6868409 125.818118,40.0430995 123.922872,39.6616231 C122.027627,39.2801467 120.072406,39.0894085 118.057208,39.0894085 C116.04201,39.0894085 114.074794,39.2682256 112.155558,39.6258597 C110.236322,39.9834938 108.50901,40.6033929 106.973621,41.4855571 C105.438233,42.3677212 104.202725,43.5717561 103.267097,45.0976616 C102.33147,46.6235672 101.863656,48.5786337 101.863656,50.9628611 C101.863656,52.5841357 102.199522,53.9550665 102.871255,55.0756534 C103.542987,56.1962403 104.430634,57.126089 105.534195,57.8651994 C106.637755,58.6043099 107.897254,59.2003668 109.31269,59.65337 C110.728126,60.1063732 112.179548,60.4997707 113.666956,60.8335626 C117.313504,61.5965154 120.156372,62.3594681 122.19556,63.1224209 C124.234748,63.8853737 125.254342,65.0298028 125.254342,66.5557084 C125.254342,67.4617148 125.038428,68.2127464 124.6066,68.8088033 C124.174772,69.4048602 123.634987,69.8817056 122.987245,70.2393398 C122.339503,70.5969739 121.619789,70.8592389 120.828105,71.0261348 C120.03642,71.1930307 119.280721,71.2764787 118.561007,71.2764787 C117.553409,71.2764787 116.581795,71.1572673 115.646168,70.9188446 C114.710541,70.6804218 113.88287,70.3108666 113.163157,69.8101788 C112.443443,69.3094911 111.855677,68.6657497 111.399859,67.8789546 C110.94404,67.0921596 110.716131,66.1503897 110.716131,65.0536451 L101,65.0536451 C101.095962,67.5332416 101.659737,69.5955983 102.691327,71.2407153 C103.722916,72.8858322 105.04239,74.2090784 106.64975,75.2104539 C108.25711,76.2118294 110.09238,76.9270977 112.155558,77.3562586 C114.218736,77.7854195 116.329896,78 118.489036,78 Z M149.472699,77.0701513 L149.472699,26 L139.252768,26 L139.252768,77.0701513 L149.472699,77.0701513 Z M172.251628,78 C176.473947,78 180.072514,77.046309 183.04733,75.1389271 C186.022145,73.2315452 188.229266,70.0605227 189.668693,65.6258597 L180.672275,65.6258597 C180.336409,66.7702889 179.424772,67.8551123 177.937364,68.8803301 C176.449957,69.9055479 174.674663,70.4181568 172.611485,70.4181568 C169.732631,70.4181568 167.52551,69.6790463 165.990122,68.2008253 C164.454733,66.7226043 163.615067,64.3383769 163.471125,61.0481431 L190.316435,61.0481431 C190.508359,58.1870702 190.268454,55.4452086 189.596722,52.8225585 C188.924989,50.1999083 187.833424,47.8633654 186.322026,45.8129298 C184.810627,43.7624943 182.879396,42.1292985 180.528333,40.9133425 C178.177269,39.6973865 175.418367,39.0894085 172.251628,39.0894085 C169.420756,39.0894085 166.841782,39.5900963 164.514709,40.5914718 C162.187636,41.5928473 160.184433,42.9637781 158.505102,44.7042641 C156.825771,46.4447501 155.530287,48.5071068 154.61865,50.8913343 C153.707013,53.2755617 153.251194,55.8505273 153.251194,58.6162311 C153.251194,61.477304 153.695017,64.0999541 154.582664,66.4841816 C155.47031,68.868409 156.729809,70.9188446 158.361159,72.6354883 C159.99251,74.352132 161.983717,75.6753783 164.334781,76.605227 C166.685845,77.5350757 169.324794,78 172.251628,78 Z M180.096505,54.610729 L163.471125,54.610729 C163.519106,53.8954608 163.675043,53.0848235 163.938938,52.1788171 C164.202833,51.2728106 164.658652,50.4144888 165.306394,49.6038514 C165.954136,48.7932141 166.817792,48.1137093 167.897362,47.565337 C168.976932,47.0169647 170.332393,46.7427785 171.963743,46.7427785 C174.458749,46.7427785 176.318009,47.4103622 177.541522,48.7455296 C178.765035,50.0806969 179.616696,52.0357634 180.096505,54.610729 Z M205.034574,77.0701513 L205.034574,64.3383769 L208.992998,60.5474553 L219.212929,77.0701513 L231.592,77.0701513 L215.974218,53.6808803 L230.00863,40.090784 L217.917445,40.090784 L205.034574,53.394773 L205.034574,26 L194.814644,26 L194.814644,77.0701513 L205.034574,77.0701513 Z M248.157403,77.4277854 C249.165002,77.4277854 250.196591,77.4039431 251.252171,77.3562586 C252.307751,77.308574 253.267369,77.213205 254.131025,77.0701513 L254.131025,69.2022008 C253.651216,69.2975699 253.147416,69.3690967 252.619627,69.4167813 C252.091837,69.4644658 251.540056,69.4883081 250.964286,69.4883081 C249.236974,69.4883081 248.085432,69.2022008 247.509661,68.6299862 C246.933891,68.0577717 246.646005,66.9133425 246.646005,65.1966988 L246.646005,46.8858322 L254.131025,46.8858322 L254.131025,40.090784 L246.646005,40.090784 L246.646005,29.0041265 L236.426075,29.0041265 L236.426075,40.090784 L230.236539,40.090784 L230.236539,46.8858322 L236.426075,46.8858322 L236.426075,68.7015131 C236.426075,70.5612105 236.73795,72.0632737 237.361702,73.2077029 C237.985454,74.352132 238.837115,75.2342962 239.916685,75.8541953 C240.996255,76.4740945 242.243758,76.8913343 243.659195,77.1059147 C245.074631,77.3204952 246.574034,77.4277854 248.157403,77.4277854 Z M274.606871,78 C277.533706,78 280.18465,77.5469968 282.559705,76.6409904 C284.934759,75.734984 286.961952,74.43558 288.641283,72.7427785 C290.320614,71.0499771 291.616099,69.0114626 292.527736,66.6272352 C293.439373,64.2430078 293.895191,61.5726731 293.895191,58.6162311 C293.895191,55.6597891 293.439373,52.9775332 292.527736,50.5694635 C291.616099,48.1613939 290.320614,46.1109583 288.641283,44.4181568 C286.961952,42.7253553 284.934759,41.4140303 282.559705,40.4841816 C280.18465,39.5543329 277.533706,39.0894085 274.606871,39.0894085 C271.680037,39.0894085 269.041088,39.5543329 266.690024,40.4841816 C264.33896,41.4140303 262.323762,42.7253553 260.644431,44.4181568 C258.9651,46.1109583 257.669616,48.1613939 256.757979,50.5694635 C255.846342,52.9775332 255.390523,55.6597891 255.390523,58.6162311 C255.390523,61.5726731 255.846342,64.2430078 256.757979,66.6272352 C257.669616,69.0114626 258.9651,71.0499771 260.644431,72.7427785 C262.323762,74.43558 264.33896,75.734984 266.690024,76.6409904 C269.041088,77.5469968 271.680037,78 274.606871,78 Z M274.606871,70.4181568 C272.879559,70.4181568 271.440132,70.084365 270.288591,69.4167813 C269.13705,68.7491976 268.213417,67.8551123 267.517694,66.7345254 C266.821971,65.6139386 266.330167,64.350298 266.042282,62.9436039 C265.754396,61.5369097 265.610454,60.0944521 265.610454,58.6162311 C265.610454,57.1380101 265.754396,55.6836314 266.042282,54.2530949 C266.330167,52.8225585 266.821971,51.5589179 267.517694,50.4621733 C268.213417,49.3654287 269.13705,48.4713434 270.288591,47.7799175 C271.440132,47.0884915 272.879559,46.7427785 274.606871,46.7427785 C276.334184,46.7427785 277.785606,47.0884915 278.961138,47.7799175 C280.13667,48.4713434 281.072297,49.3654287 281.76802,50.4621733 C282.463743,51.5589179 282.955547,52.8225585 283.243432,54.2530949 C283.531318,55.6836314 283.675261,57.1380101 283.675261,58.6162311 C283.675261,60.0944521 283.531318,61.5369097 283.243432,62.9436039 C282.955547,64.350298 282.463743,65.6139386 281.76802,66.7345254 C281.072297,67.8551123 280.13667,68.7491976 278.961138,69.4167813 C277.785606,70.084365 276.334184,70.4181568 274.606871,70.4181568 Z M308.253474,77.0701513 L308.253474,60.4044017 C308.253474,58.7354425 308.421407,57.1856946 308.757273,55.7551582 C309.093139,54.3246217 309.656915,53.0729023 310.4486,52 C311.240284,50.9270977 312.283869,50.0806969 313.579353,49.4607978 C314.874837,48.8408987 316.458207,48.5309491 318.329462,48.5309491 C318.953213,48.5309491 319.600955,48.5667125 320.272688,48.6382393 C320.94442,48.7097662 321.520191,48.7932141 322,48.8885832 L322,39.4470426 C321.184325,39.2086199 320.440621,39.0894085 319.768888,39.0894085 C318.473404,39.0894085 317.225901,39.2801467 316.026379,39.6616231 C314.826856,40.0430995 313.699305,40.5795507 312.643726,41.2709766 C311.588146,41.9624026 310.652518,42.7968822 309.836843,43.7744154 C309.021168,44.7519486 308.373426,45.8129298 307.893617,46.957359 L307.749674,46.957359 L307.749674,40.090784 L298.033543,40.090784 L298.033543,77.0701513 L308.253474,77.0701513 Z" id="slektor" fill="#000000" fill-rule="nonzero"></path>
    </g>
</svg>