<?xml version="1.0" encoding="UTF-8"?>
<svg width="93px" height="23px" viewBox="0 0 93 23" version="1.1" xmlns="http://www.w3.org/2000/svg" xmlns:xlink="http://www.w3.org/1999/xlink">
    <!-- Generator: Sketch 63.1 (92452) - https://sketch.com -->
    <title>slektor-mark</title>
    <desc>Created with Sketch.</desc>
    <g id="Page-1" stroke="none" stroke-width="1" fill="none" fill-rule="evenodd">
        <path d="M8.16,22.39 C9.04,22.39 9.905,22.305 10.755,22.135 C11.605,21.965 12.36,21.67 13.02,21.25 C13.68,20.83 14.215,20.275 14.625,19.585 C15.035,18.895 15.24,18.04 15.24,17.02 C15.24,16.3 15.1,15.695 14.82,15.205 C14.54,14.715 14.17,14.305 13.71,13.975 C13.25,13.645 12.725,13.38 12.135,13.18 C11.545,12.98 10.94,12.81 10.32,12.67 C9.72,12.53 9.13,12.4 8.55,12.28 C7.97,12.16 7.455,12.025 7.005,11.875 C6.555,11.725 6.19,11.53 5.91,11.29 C5.63,11.05 5.49,10.74 5.49,10.36 C5.49,10.04 5.57,9.785 5.73,9.595 C5.89,9.405 6.085,9.26 6.315,9.16 C6.545,9.06 6.8,8.995 7.08,8.965 C7.36,8.935 7.62,8.92 7.86,8.92 C8.62,8.92 9.28,9.065 9.84,9.355 C10.4,9.645 10.71,10.2 10.77,11.02 L14.82,11.02 C14.74,10.06 14.495,9.265 14.085,8.635 C13.675,8.005 13.16,7.5 12.54,7.12 C11.92,6.74 11.215,6.47 10.425,6.31 C9.635,6.15 8.82,6.07 7.98,6.07 C7.14,6.07 6.32,6.145 5.52,6.295 C4.72,6.445 4,6.705 3.36,7.075 C2.72,7.445 2.205,7.95 1.815,8.59 C1.425,9.23 1.23,10.05 1.23,11.05 C1.23,11.73 1.37,12.305 1.65,12.775 C1.93,13.245 2.3,13.635 2.76,13.945 C3.22,14.255 3.745,14.505 4.335,14.695 C4.925,14.885 5.53,15.05 6.15,15.19 C7.67,15.51 8.855,15.83 9.705,16.15 C10.555,16.47 10.98,16.95 10.98,17.59 C10.98,17.97 10.89,18.285 10.71,18.535 C10.53,18.785 10.305,18.985 10.035,19.135 C9.765,19.285 9.465,19.395 9.135,19.465 C8.805,19.535 8.49,19.57 8.19,19.57 C7.77,19.57 7.365,19.52 6.975,19.42 C6.585,19.32 6.24,19.165 5.94,18.955 C5.64,18.745 5.395,18.475 5.205,18.145 C5.015,17.815 4.92,17.42 4.92,16.96 L0.87,16.96 C0.91,18 1.145,18.865 1.575,19.555 C2.005,20.245 2.555,20.8 3.225,21.22 C3.895,21.64 4.66,21.94 5.52,22.12 C6.38,22.3 7.26,22.39 8.16,22.39 Z M21.075,22 L21.075,0.58 L16.815,0.58 L16.815,22 L21.075,22 Z M30.57,22.39 C32.33,22.39 33.83,21.99 35.07,21.19 C36.31,20.39 37.23,19.06 37.83,17.2 L34.08,17.2 C33.94,17.68 33.56,18.135 32.94,18.565 C32.32,18.995 31.58,19.21 30.72,19.21 C29.52,19.21 28.6,18.9 27.96,18.28 C27.32,17.66 26.97,16.66 26.91,15.28 L38.1,15.28 C38.18,14.08 38.08,12.93 37.8,11.83 C37.52,10.73 37.065,9.75 36.435,8.89 C35.805,8.03 35,7.345 34.02,6.835 C33.04,6.325 31.89,6.07 30.57,6.07 C29.39,6.07 28.315,6.28 27.345,6.7 C26.375,7.12 25.54,7.695 24.84,8.425 C24.14,9.155 23.6,10.02 23.22,11.02 C22.84,12.02 22.65,13.1 22.65,14.26 C22.65,15.46 22.835,16.56 23.205,17.56 C23.575,18.56 24.1,19.42 24.78,20.14 C25.46,20.86 26.29,21.415 27.27,21.805 C28.25,22.195 29.35,22.39 30.57,22.39 Z M33.84,12.58 L26.91,12.58 C26.93,12.28 26.995,11.94 27.105,11.56 C27.215,11.18 27.405,10.82 27.675,10.48 C27.945,10.14 28.305,9.855 28.755,9.625 C29.205,9.395 29.77,9.28 30.45,9.28 C31.49,9.28 32.265,9.56 32.775,10.12 C33.285,10.68 33.64,11.5 33.84,12.58 Z M44.235,22 L44.235,16.66 L45.885,15.07 L50.145,22 L55.305,22 L48.795,12.19 L54.645,6.49 L49.605,6.49 L44.235,12.07 L44.235,0.58 L39.975,0.58 L39.975,22 L44.235,22 Z M62.21,22.15 C62.63,22.15 63.06,22.14 63.5,22.12 C63.94,22.1 64.34,22.06 64.7,22 L64.7,18.7 C64.5,18.74 64.29,18.77 64.07,18.79 C63.85,18.81 63.62,18.82 63.38,18.82 C62.66,18.82 62.18,18.7 61.94,18.46 C61.7,18.22 61.58,17.74 61.58,17.02 L61.58,9.34 L64.7,9.34 L64.7,6.49 L61.58,6.49 L61.58,1.84 L57.32,1.84 L57.32,6.49 L54.74,6.49 L54.74,9.34 L57.32,9.34 L57.32,18.49 C57.32,19.27 57.45,19.9 57.71,20.38 C57.97,20.86 58.325,21.23 58.775,21.49 C59.225,21.75 59.745,21.925 60.335,22.015 C60.925,22.105 61.55,22.15 62.21,22.15 Z M73.235,22.39 C74.455,22.39 75.56,22.2 76.55,21.82 C77.54,21.44 78.385,20.895 79.085,20.185 C79.785,19.475 80.325,18.62 80.705,17.62 C81.085,16.62 81.275,15.5 81.275,14.26 C81.275,13.02 81.085,11.895 80.705,10.885 C80.325,9.875 79.785,9.015 79.085,8.305 C78.385,7.595 77.54,7.045 76.55,6.655 C75.56,6.265 74.455,6.07 73.235,6.07 C72.015,6.07 70.915,6.265 69.935,6.655 C68.955,7.045 68.115,7.595 67.415,8.305 C66.715,9.015 66.175,9.875 65.795,10.885 C65.415,11.895 65.225,13.02 65.225,14.26 C65.225,15.5 65.415,16.62 65.795,17.62 C66.175,18.62 66.715,19.475 67.415,20.185 C68.115,20.895 68.955,21.44 69.935,21.82 C70.915,22.2 72.015,22.39 73.235,22.39 Z M73.235,19.21 C72.515,19.21 71.915,19.07 71.435,18.79 C70.955,18.51 70.57,18.135 70.28,17.665 C69.99,17.195 69.785,16.665 69.665,16.075 C69.545,15.485 69.485,14.88 69.485,14.26 C69.485,13.64 69.545,13.03 69.665,12.43 C69.785,11.83 69.99,11.3 70.28,10.84 C70.57,10.38 70.955,10.005 71.435,9.715 C71.915,9.425 72.515,9.28 73.235,9.28 C73.955,9.28 74.56,9.425 75.05,9.715 C75.54,10.005 75.93,10.38 76.22,10.84 C76.51,11.3 76.715,11.83 76.835,12.43 C76.955,13.03 77.015,13.64 77.015,14.26 C77.015,14.88 76.955,15.485 76.835,16.075 C76.715,16.665 76.51,17.195 76.22,17.665 C75.93,18.135 75.54,18.51 75.05,18.79 C74.56,19.07 73.955,19.21 73.235,19.21 Z M87.26,22 L87.26,15.01 C87.26,14.31 87.33,13.66 87.47,13.06 C87.61,12.46 87.845,11.935 88.175,11.485 C88.505,11.035 88.94,10.68 89.48,10.42 C90.02,10.16 90.68,10.03 91.46,10.03 C91.72,10.03 91.99,10.045 92.27,10.075 C92.55,10.105 92.79,10.14 92.99,10.18 L92.99,6.22 C92.65,6.12 92.34,6.07 92.06,6.07 C91.52,6.07 91,6.15 90.5,6.31 C90,6.47 89.53,6.695 89.09,6.985 C88.65,7.275 88.26,7.625 87.92,8.035 C87.58,8.445 87.31,8.89 87.11,9.37 L87.05,9.37 L87.05,6.49 L83,6.49 L83,22 L87.26,22 Z" id="slektor-mark" fill="#2670E1" fill-rule="nonzero"></path>
    </g>
</svg>